<svg width="20" height="34" viewBox="0 0 20 34" fill="none" xmlns="http://www.w3.org/2000/svg">
<ellipse cx="9.95093" cy="17.3589" rx="6.1416" ry="6.40528" fill="#240C2A" fill-opacity="0.36"/>
<path fill-rule="evenodd" clip-rule="evenodd" d="M9.99996 22.2269C12.6049 22.2269 14.7167 20.0245 14.7167 17.3077C14.7167 14.5909 12.6049 12.3884 9.99996 12.3884C7.39497 12.3884 5.2832 14.5909 5.2832 17.3077C5.2832 20.0245 7.39497 22.2269 9.99996 22.2269ZM10.0001 21.1446C12.032 21.1446 13.6792 19.4267 13.6792 17.3076C13.6792 15.1885 12.032 13.4706 10.0001 13.4706C7.96822 13.4706 6.32104 15.1885 6.32104 17.3076C6.32104 19.4267 7.96822 21.1446 10.0001 21.1446Z" fill="#70438C"/>
<ellipse cx="9.95096" cy="17.3589" rx="2.80057" ry="2.92081" fill="#7921D1"/>
<ellipse cx="10.0001" cy="17.3077" rx="1.86705" ry="1.9472" fill="#DEB3FF"/>
<ellipse cx="9.99987" cy="17.3077" rx="1.27745" ry="1.3323" fill="white"/>
<rect x="9.31213" y="0.807693" width="1.27745" height="14.5528" fill="url(#paint0_linear_2903_755)"/>
<rect y="17.9765" width="1.3323" height="7.67255" transform="rotate(-90 0 17.9765)" fill="url(#paint1_linear_2903_755)"/>
<rect x="20" y="16.6777" width="1.3323" height="7.67255" transform="rotate(90 20 16.6777)" fill="url(#paint2_linear_2903_755)"/>
<rect x="10.5896" y="33.8077" width="1.27745" height="14.5528" transform="rotate(180 10.5896 33.8077)" fill="url(#paint3_linear_2903_755)"/>
<defs>
<linearGradient id="paint0_linear_2903_755" x1="9.84558" y1="15.3605" x2="10.0746" y2="0.807984" gradientUnits="userSpaceOnUse">
<stop offset="0.2" stop-color="#7921D1"/>
<stop offset="0.935" stop-color="#AEB0F4" stop-opacity="0"/>
</linearGradient>
<linearGradient id="paint1_linear_2903_755" x1="0.556346" y1="25.6491" x2="0.617398" y2="17.9752" gradientUnits="userSpaceOnUse">
<stop offset="0.2" stop-color="#7921D1"/>
<stop offset="0.935" stop-color="#AEB0F4" stop-opacity="0"/>
</linearGradient>
<linearGradient id="paint2_linear_2903_755" x1="20.5563" y1="24.3502" x2="20.6174" y2="16.6764" gradientUnits="userSpaceOnUse">
<stop offset="0.2" stop-color="#7921D1"/>
<stop offset="0.935" stop-color="#AEB0F4" stop-opacity="0"/>
</linearGradient>
<linearGradient id="paint3_linear_2903_755" x1="11.123" y1="48.3605" x2="11.3521" y2="33.808" gradientUnits="userSpaceOnUse">
<stop offset="0.2" stop-color="#7921D1"/>
<stop offset="0.935" stop-color="#AEB0F4" stop-opacity="0"/>
</linearGradient>
</defs>
</svg>
