<svg width="20" height="34" viewBox="0 0 20 34" fill="none" xmlns="http://www.w3.org/2000/svg">
<ellipse cx="9.95058" cy="17.3589" rx="6.18129" ry="6.40528" fill="#EEE632" fill-opacity="0.09"/>
<path fill-rule="evenodd" clip-rule="evenodd" d="M9.99992 22.227C12.6217 22.227 14.7471 20.0245 14.7471 17.3077C14.7471 14.5909 12.6217 12.3884 9.99992 12.3884C7.37809 12.3884 5.25269 14.5909 5.25269 17.3077C5.25269 20.0245 7.37809 22.227 9.99992 22.227ZM9.99996 21.1447C12.045 21.1447 13.7028 19.4268 13.7028 17.3076C13.7028 15.1885 12.045 13.4706 9.99996 13.4706C7.95494 13.4706 6.29712 15.1885 6.29712 17.3076C6.29712 19.4268 7.95494 21.1447 9.99996 21.1447Z" fill="#B6B13A"/>
<ellipse cx="9.95051" cy="17.359" rx="2.81867" ry="2.92081" fill="#EEE632"/>
<ellipse cx="9.99996" cy="17.3077" rx="1.87911" ry="1.94721" fill="#FEF4D5"/>
<ellipse cx="10.0001" cy="17.3077" rx="1.28571" ry="1.3323" fill="white"/>
<rect x="9.30771" y="0.807693" width="1.28571" height="14.5528" fill="url(#paint0_linear_2903_729)"/>
<rect x="20" y="16.6777" width="1.33924" height="7.72213" transform="rotate(90 20 16.6777)" fill="url(#paint1_linear_2903_729)"/>
<rect y="17.9834" width="1.33924" height="7.72213" transform="rotate(-90 0 17.9834)" fill="url(#paint2_linear_2903_729)"/>
<rect x="10.5935" y="33.8077" width="1.28571" height="14.5528" transform="rotate(180 10.5935 33.8077)" fill="url(#paint3_linear_2903_729)"/>
<defs>
<linearGradient id="paint0_linear_2903_729" x1="9.8446" y1="15.3605" x2="10.0722" y2="0.807938" gradientUnits="userSpaceOnUse">
<stop offset="0.2" stop-color="#EEE632"/>
<stop offset="1" stop-color="#FF2E00" stop-opacity="0"/>
</linearGradient>
<linearGradient id="paint1_linear_2903_729" x1="20.5592" y1="24.3998" x2="20.6208" y2="16.6764" gradientUnits="userSpaceOnUse">
<stop offset="0.2" stop-color="#EEE632"/>
<stop offset="1" stop-color="#FF2E00" stop-opacity="0"/>
</linearGradient>
<linearGradient id="paint2_linear_2903_729" x1="0.559244" y1="25.7056" x2="0.620768" y2="17.9822" gradientUnits="userSpaceOnUse">
<stop offset="0.2" stop-color="#EEE632"/>
<stop offset="1" stop-color="#FF2E00" stop-opacity="0"/>
</linearGradient>
<linearGradient id="paint3_linear_2903_729" x1="11.1304" y1="48.3605" x2="11.358" y2="33.8079" gradientUnits="userSpaceOnUse">
<stop offset="0.2" stop-color="#EEE632"/>
<stop offset="1" stop-color="#FF2E00" stop-opacity="0"/>
</linearGradient>
</defs>
</svg>
