<svg width="20" height="34" viewBox="0 0 20 34" fill="none" xmlns="http://www.w3.org/2000/svg">
<ellipse cx="9.95082" cy="17.359" rx="6.18129" ry="6.40528" fill="#45421F" fill-opacity="0.5"/>
<path fill-rule="evenodd" clip-rule="evenodd" d="M10.0002 22.2269C12.622 22.2269 14.7474 20.0245 14.7474 17.3077C14.7474 14.5909 12.622 12.3884 10.0002 12.3884C7.37834 12.3884 5.25293 14.5909 5.25293 17.3077C5.25293 20.0245 7.37834 22.2269 10.0002 22.2269ZM10.0002 21.1447C12.0452 21.1447 13.703 19.4268 13.703 17.3076C13.703 15.1885 12.0452 13.4706 10.0002 13.4706C7.95518 13.4706 6.29736 15.1885 6.29736 17.3076C6.29736 19.4268 7.95518 21.1447 10.0002 21.1447Z" fill="#F0B253"/>
<ellipse cx="9.95075" cy="17.3589" rx="2.81867" ry="2.92081" fill="#F9A723"/>
<ellipse cx="10.0002" cy="17.3077" rx="1.87911" ry="1.9472" fill="#FFE1B4"/>
<ellipse cx="10.0003" cy="17.3077" rx="1.28571" ry="1.3323" fill="white"/>
<rect x="9.30792" y="0.807693" width="1.28571" height="14.5528" fill="url(#paint0_linear_2903_899)"/>
<rect x="20.0002" y="16.6777" width="1.33924" height="7.72213" transform="rotate(90 20.0002 16.6777)" fill="url(#paint1_linear_2903_899)"/>
<rect x="0.000244141" y="17.9834" width="1.33924" height="7.72213" transform="rotate(-90 0.000244141 17.9834)" fill="url(#paint2_linear_2903_899)"/>
<rect x="10.5935" y="33.8077" width="1.28571" height="14.5528" transform="rotate(180 10.5935 33.8077)" fill="url(#paint3_linear_2903_899)"/>
<defs>
<linearGradient id="paint0_linear_2903_899" x1="9.84481" y1="15.3605" x2="10.0724" y2="0.807938" gradientUnits="userSpaceOnUse">
<stop offset="0.2" stop-color="#F9A723"/>
<stop offset="1" stop-color="#FF9900" stop-opacity="0"/>
</linearGradient>
<linearGradient id="paint1_linear_2903_899" x1="20.5595" y1="24.3998" x2="20.621" y2="16.6764" gradientUnits="userSpaceOnUse">
<stop offset="0.2" stop-color="#F9A723"/>
<stop offset="1" stop-color="#FF9900" stop-opacity="0"/>
</linearGradient>
<linearGradient id="paint2_linear_2903_899" x1="0.559488" y1="25.7055" x2="0.621012" y2="17.9821" gradientUnits="userSpaceOnUse">
<stop offset="0.2" stop-color="#F9A723"/>
<stop offset="1" stop-color="#FF9900" stop-opacity="0"/>
</linearGradient>
<linearGradient id="paint3_linear_2903_899" x1="11.1304" y1="48.3605" x2="11.358" y2="33.8079" gradientUnits="userSpaceOnUse">
<stop offset="0.2" stop-color="#F9A723"/>
<stop offset="1" stop-color="#FF9900" stop-opacity="0"/>
</linearGradient>
</defs>
</svg>
