<svg width="20" height="33" viewBox="0 0 20 33" fill="none" xmlns="http://www.w3.org/2000/svg">
<ellipse cx="9.95117" cy="16.3574" rx="6.1416" ry="6.21118" fill="#162765" fill-opacity="0.4"/>
<path fill-rule="evenodd" clip-rule="evenodd" d="M10.0002 21.0778C12.6052 21.0778 14.717 18.9421 14.717 16.3076C14.717 13.6731 12.6052 11.5375 10.0002 11.5375C7.39521 11.5375 5.28345 13.6731 5.28345 16.3076C5.28345 18.9421 7.39521 21.0778 10.0002 21.0778ZM10.0001 20.0283C12.032 20.0283 13.6792 18.3625 13.6792 16.3076C13.6792 14.2527 12.032 12.5868 10.0001 12.5868C7.96822 12.5868 6.32104 14.2527 6.32104 16.3076C6.32104 18.3625 7.96822 20.0283 10.0001 20.0283Z" fill="#3662BE"/>
<ellipse cx="9.95121" cy="16.3573" rx="2.80057" ry="2.8323" fill="#78CFFA"/>
<ellipse cx="10.0003" cy="16.3076" rx="1.86705" ry="1.8882" fill="#EBF5CC"/>
<ellipse cx="10.0001" cy="16.3077" rx="1.27745" ry="1.29193" fill="white"/>
<rect x="9.31238" y="0.307693" width="1.27745" height="14.1118" fill="url(#paint0_linear_2903_768)"/>
<rect y="16.9562" width="1.29193" height="7.67255" transform="rotate(-90 0 16.9562)" fill="url(#paint1_linear_2903_768)"/>
<rect x="20.0002" y="15.6968" width="1.29193" height="7.67255" transform="rotate(90 20.0002 15.6968)" fill="url(#paint2_linear_2903_768)"/>
<rect x="10.5898" y="32.3077" width="1.27745" height="14.1118" transform="rotate(180 10.5898 32.3077)" fill="url(#paint3_linear_2903_768)"/>
<defs>
<linearGradient id="paint0_linear_2903_768" x1="9.84582" y1="14.4195" x2="10.0612" y2="0.307767" gradientUnits="userSpaceOnUse">
<stop offset="0.2" stop-color="#78CFFA"/>
<stop offset="0.935" stop-color="white" stop-opacity="0"/>
</linearGradient>
<linearGradient id="paint1_linear_2903_768" x1="0.539486" y1="24.6288" x2="0.602447" y2="16.955" gradientUnits="userSpaceOnUse">
<stop offset="0.2" stop-color="#78CFFA"/>
<stop offset="0.935" stop-color="white" stop-opacity="0"/>
</linearGradient>
<linearGradient id="paint2_linear_2903_768" x1="20.5397" y1="23.3693" x2="20.6027" y2="15.6955" gradientUnits="userSpaceOnUse">
<stop offset="0.2" stop-color="#78CFFA"/>
<stop offset="0.935" stop-color="white" stop-opacity="0"/>
</linearGradient>
<linearGradient id="paint3_linear_2903_768" x1="11.1233" y1="46.4195" x2="11.3387" y2="32.3078" gradientUnits="userSpaceOnUse">
<stop offset="0.2" stop-color="#78CFFA"/>
<stop offset="0.935" stop-color="white" stop-opacity="0"/>
</linearGradient>
</defs>
</svg>
