<svg width="24" height="24" viewBox="0 0 24 24" fill="none" xmlns="http://www.w3.org/2000/svg">
<path fill-rule="evenodd" clip-rule="evenodd" d="M12 21.25C17.1086 21.25 21.25 17.1086 21.25 12C21.25 6.89137 17.1086 2.75 12 2.75C6.89137 2.75 2.75 6.89137 2.75 12C2.75 17.1086 6.89137 21.25 12 21.25ZM14.0139 8.54625C14.3156 8.26242 14.3301 7.78776 14.0462 7.48608C13.7624 7.1844 13.2878 7.16993 12.9861 7.45376L9.16397 11.0497C8.61201 11.569 8.61201 12.431 9.16397 12.9503L12.9861 16.5462C13.2878 16.8301 13.7624 16.8156 14.0462 16.5139C14.3301 16.2122 14.3156 15.7376 14.0139 15.4538L10.3429 12L14.0139 8.54625Z" fill="black"/>
</svg>
