<svg width="243" height="19" viewBox="0 0 243 19" fill="none" xmlns="http://www.w3.org/2000/svg">
<path d="M10.908 6.27841C10.8512 5.65341 10.5984 5.16761 10.1495 4.82102C9.70632 4.46875 9.0728 4.29261 8.24893 4.29261C7.70348 4.29261 7.24893 4.36364 6.8853 4.50568C6.52166 4.64773 6.24893 4.84375 6.06712 5.09375C5.8853 5.33807 5.79155 5.61932 5.78587 5.9375C5.7745 6.19886 5.82564 6.42898 5.93928 6.62784C6.05859 6.8267 6.22905 7.00284 6.45064 7.15625C6.67791 7.30398 6.95064 7.43466 7.26882 7.5483C7.587 7.66193 7.94496 7.76136 8.34268 7.84659L9.84268 8.1875C10.7063 8.375 11.4677 8.625 12.1268 8.9375C12.7915 9.25 13.3484 9.62216 13.7972 10.054C14.2518 10.4858 14.5955 10.983 14.8285 11.5455C15.0614 12.108 15.1808 12.7386 15.1864 13.4375C15.1808 14.5398 14.9023 15.4858 14.3512 16.2756C13.8001 17.0653 13.0075 17.6705 11.9734 18.0909C10.945 18.5114 9.70348 18.7216 8.24893 18.7216C6.78871 18.7216 5.51598 18.5028 4.43075 18.0653C3.34553 17.6278 2.50178 16.9631 1.8995 16.071C1.29723 15.179 0.987571 14.0511 0.970526 12.6875H5.0103C5.04439 13.25 5.19496 13.7188 5.462 14.0938C5.72905 14.4688 6.09553 14.7528 6.56143 14.946C7.03303 15.1392 7.57848 15.2358 8.1978 15.2358C8.76598 15.2358 9.24893 15.1591 9.64666 15.0057C10.0501 14.8523 10.3597 14.6392 10.5756 14.3665C10.7915 14.0937 10.9023 13.7812 10.908 13.429C10.9023 13.0994 10.8001 12.8182 10.6012 12.5852C10.4023 12.3466 10.0955 12.142 9.68075 11.9716C9.27166 11.7955 8.74893 11.6335 8.11257 11.4858L6.28871 11.0597C4.77734 10.7131 3.587 10.1534 2.71768 9.38068C1.84837 8.60227 1.41655 7.55114 1.42223 6.22727C1.41655 5.14773 1.70632 4.2017 2.29155 3.3892C2.87678 2.5767 3.68643 1.94318 4.72053 1.48864C5.75462 1.03409 6.93359 0.806818 8.25746 0.806818C9.60973 0.806818 10.783 1.03693 11.7773 1.49716C12.7773 1.9517 13.5529 2.59091 14.104 3.41477C14.6552 4.23864 14.9364 5.19318 14.9478 6.27841H10.908ZM17.3171 18.5V1.04545H24.5273C25.8342 1.04545 26.962 1.30114 27.9109 1.8125C28.8654 2.31818 29.6012 3.02557 30.1183 3.93466C30.6353 4.83807 30.8938 5.8892 30.8938 7.08807C30.8938 8.29261 30.6296 9.34659 30.1012 10.25C29.5785 11.1477 28.8313 11.8437 27.8597 12.3381C26.8881 12.8324 25.7347 13.0795 24.3995 13.0795H19.9506V9.75568H23.6154C24.2518 9.75568 24.783 9.64489 25.2092 9.4233C25.641 9.2017 25.9677 8.89205 26.1893 8.49432C26.4109 8.09091 26.5217 7.62216 26.5217 7.08807C26.5217 6.54829 26.4109 6.08239 26.1893 5.69034C25.9677 5.29261 25.641 4.9858 25.2092 4.76989C24.7773 4.55398 24.2461 4.44602 23.6154 4.44602H21.5359V18.5H17.3171ZM34.6396 18.5H30.1055L35.9947 1.04545H41.6112L47.5004 18.5H42.9663L38.8668 5.44318H38.7305L34.6396 18.5ZM34.0344 11.6307H43.5117V14.8352H34.0344V11.6307ZM64.4031 7.36932H60.1417C60.0849 6.93182 59.9684 6.53693 59.7923 6.18466C59.6161 5.83239 59.3832 5.53125 59.0934 5.28125C58.8036 5.03125 58.4599 4.84091 58.0621 4.71023C57.6701 4.57386 57.2354 4.50568 56.7582 4.50568C55.9116 4.50568 55.1815 4.71307 54.5678 5.12784C53.9599 5.54261 53.4911 6.14205 53.1616 6.92614C52.8377 7.71023 52.6758 8.65909 52.6758 9.77273C52.6758 10.9318 52.8406 11.9034 53.1701 12.6875C53.5053 13.4659 53.9741 14.054 54.5763 14.4517C55.1843 14.8437 55.9031 15.0398 56.7326 15.0398C57.1985 15.0398 57.6218 14.9801 58.0025 14.8608C58.3888 14.7415 58.7269 14.5682 59.0167 14.3409C59.3121 14.108 59.5536 13.8267 59.7411 13.4972C59.9343 13.1619 60.0678 12.7841 60.1417 12.3636L64.4031 12.3892C64.3292 13.1619 64.1048 13.9233 63.7298 14.6733C63.3604 15.4233 62.8519 16.108 62.2042 16.7273C61.5565 17.3409 60.7667 17.8295 59.8349 18.1932C58.9087 18.5568 57.8462 18.7386 56.6474 18.7386C55.0678 18.7386 53.6531 18.392 52.4031 17.6989C51.1587 17 50.1758 15.983 49.4542 14.6477C48.7326 13.3125 48.3718 11.6875 48.3718 9.77273C48.3718 7.85227 48.7383 6.22443 49.4712 4.8892C50.2042 3.55398 51.1957 2.53977 52.4457 1.84659C53.6957 1.15341 55.0962 0.806818 56.6474 0.806818C57.7042 0.806818 58.6815 0.954545 59.5792 1.25C60.4769 1.53977 61.2667 1.96591 61.9485 2.52841C62.6303 3.08523 63.1843 3.76989 63.6104 4.58239C64.0366 5.39489 64.3008 6.32386 64.4031 7.36932ZM66.8171 18.5V1.04545H78.9876V4.47159H71.0359V8.05114H78.3654V11.4858H71.0359V15.0739H78.9876V18.5H66.8171Z" fill="url(#paint0_linear_2861_1406)"/>
<path d="M102.63 7.36932H98.3683C98.3114 6.93182 98.195 6.53693 98.0188 6.18466C97.8427 5.83239 97.6097 5.53125 97.32 5.28125C97.0302 5.03125 96.6864 4.84091 96.2887 4.71023C95.8967 4.57386 95.462 4.50568 94.9847 4.50568C94.1381 4.50568 93.408 4.71307 92.7944 5.12784C92.1864 5.54261 91.7177 6.14205 91.3881 6.92614C91.0643 7.71023 90.9023 8.65909 90.9023 9.77273C90.9023 10.9318 91.0671 11.9034 91.3967 12.6875C91.7319 13.4659 92.2006 14.054 92.8029 14.4517C93.4109 14.8437 94.1296 15.0398 94.9592 15.0398C95.4251 15.0398 95.8484 14.9801 96.229 14.8608C96.6154 14.7415 96.9535 14.5682 97.2433 14.3409C97.5387 14.108 97.7802 13.8267 97.9677 13.4972C98.1609 13.1619 98.2944 12.7841 98.3683 12.3636L102.63 12.3892C102.556 13.1619 102.331 13.9233 101.956 14.6733C101.587 15.4233 101.078 16.108 100.431 16.7273C99.783 17.3409 98.9933 17.8295 98.0614 18.1932C97.1353 18.5568 96.0728 18.7386 94.8739 18.7386C93.2944 18.7386 91.8796 18.392 90.6296 17.6989C89.3853 17 88.4023 15.983 87.6808 14.6477C86.9592 13.3125 86.5984 11.6875 86.5984 9.77273C86.5984 7.85227 86.9648 6.22443 87.6978 4.8892C88.4308 3.55398 89.4222 2.53977 90.6722 1.84659C91.9222 1.15341 93.3228 0.806818 94.8739 0.806818C95.9308 0.806818 96.908 0.954545 97.8058 1.25C98.7035 1.53977 99.4933 1.96591 100.175 2.52841C100.857 3.08523 101.411 3.76989 101.837 4.58239C102.263 5.39489 102.527 6.32386 102.63 7.36932ZM121.518 9.77273C121.518 11.6932 121.149 13.321 120.41 14.6562C119.672 15.9915 118.672 17.0057 117.41 17.6989C116.154 18.392 114.745 18.7386 113.183 18.7386C111.615 18.7386 110.203 18.3892 108.947 17.6903C107.691 16.9915 106.694 15.9773 105.956 14.6477C105.223 13.3125 104.856 11.6875 104.856 9.77273C104.856 7.85227 105.223 6.22443 105.956 4.8892C106.694 3.55398 107.691 2.53977 108.947 1.84659C110.203 1.15341 111.615 0.806818 113.183 0.806818C114.745 0.806818 116.154 1.15341 117.41 1.84659C118.672 2.53977 119.672 3.55398 120.41 4.8892C121.149 6.22443 121.518 7.85227 121.518 9.77273ZM117.206 9.77273C117.206 8.63636 117.044 7.67614 116.72 6.89205C116.402 6.10795 115.941 5.5142 115.339 5.11079C114.743 4.70739 114.024 4.50568 113.183 4.50568C112.348 4.50568 111.629 4.70739 111.027 5.11079C110.424 5.5142 109.961 6.10795 109.637 6.89205C109.319 7.67614 109.16 8.63636 109.16 9.77273C109.16 10.9091 109.319 11.8693 109.637 12.6534C109.961 13.4375 110.424 14.0312 111.027 14.4347C111.629 14.8381 112.348 15.0398 113.183 15.0398C114.024 15.0398 114.743 14.8381 115.339 14.4347C115.941 14.0312 116.402 13.4375 116.72 12.6534C117.044 11.8693 117.206 10.9091 117.206 9.77273ZM123.981 1.04545H129.206L133.637 11.8523H133.842L138.274 1.04545H143.498V18.5H139.39V7.77841H139.245L135.052 18.3892H132.427L128.234 7.71875H128.089V18.5H123.981V1.04545ZM146.13 1.04545H151.354L155.786 11.8523H155.99L160.422 1.04545H165.647V18.5H161.539V7.77841H161.394L157.201 18.3892H154.576L150.382 7.71875H150.238V18.5H146.13V1.04545ZM178.838 1.04545H183.048V12.304C183.048 13.6051 182.738 14.7386 182.119 15.7045C181.5 16.6648 180.636 17.4091 179.528 17.9375C178.42 18.4602 177.133 18.7216 175.667 18.7216C174.184 18.7216 172.889 18.4602 171.781 17.9375C170.673 17.4091 169.812 16.6648 169.199 15.7045C168.585 14.7386 168.278 13.6051 168.278 12.304V1.04545H172.497V11.9375C172.497 12.5398 172.627 13.0767 172.889 13.5483C173.156 14.0199 173.528 14.3892 174.005 14.6562C174.483 14.9233 175.037 15.0568 175.667 15.0568C176.298 15.0568 176.849 14.9233 177.321 14.6562C177.798 14.3892 178.17 14.0199 178.437 13.5483C178.704 13.0767 178.838 12.5398 178.838 11.9375V1.04545ZM200.547 1.04545V18.5H196.968L190.022 8.42614H189.911V18.5H185.692V1.04545H189.323L196.192 11.1023H196.337V1.04545H200.547ZM207.419 1.04545V18.5H203.2V1.04545H207.419ZM209.496 4.47159V1.04545H224.249V4.47159H218.956V18.5H214.797V4.47159H209.496ZM225.44 1.04545H230.153L233.843 8.34943H233.997L237.687 1.04545H242.4L236.017 12.6705V18.5H231.824V12.6705L225.44 1.04545Z" fill="black"/>
<defs>
<linearGradient id="paint0_linear_2861_1406" x1="121.5" y1="-4.5" x2="121.5" y2="24.5" gradientUnits="userSpaceOnUse">
<stop stop-color="#99479C"/>
<stop offset="0.18" stop-color="#51008B"/>
<stop offset="0.495" stop-color="#301C86"/>
<stop offset="0.885" stop-color="#090029"/>
<stop offset="1" stop-color="#120049"/>
</linearGradient>
</defs>
</svg>
