<svg width="24" height="24" viewBox="0 0 24 24" fill="none" xmlns="http://www.w3.org/2000/svg">
<path fill-rule="evenodd" clip-rule="evenodd" d="M12 21.25C17.1086 21.25 21.25 17.1086 21.25 12C21.25 6.89137 17.1086 2.75 12 2.75C6.89137 2.75 2.75 6.89137 2.75 12C2.75 17.1086 6.89137 21.25 12 21.25ZM11.0139 7.45376C10.7122 7.16993 10.2376 7.1844 9.95376 7.48608C9.66993 7.78776 9.6844 8.26242 9.98608 8.54625L13.6571 12L9.98608 15.4538C9.6844 15.7376 9.66993 16.2122 9.95376 16.5139C10.2376 16.8156 10.7122 16.8301 11.0139 16.5462L14.836 12.9503C15.388 12.431 15.388 11.569 14.836 11.0497L11.0139 7.45376Z" fill="black"/>
</svg>
